HIERARCHY
ROOT Hips
{
  OFFSET 5.72205e-005 65.662 3.42586
  CHANNELS 6 Xposition Yposition Zposition Zrotation Xrotation Yrotation
  JOINT Chest
  {
    OFFSET 0 8.7983 -4.7612
    CHANNELS 6 Xposition Yposition Zposition Zrotation Xrotation Yrotation
    JOINT Chest2
    {
      OFFSET 0 8.0291 0.4195
      CHANNELS 6 Xposition Yposition Zposition Zrotation Xrotation Yrotation
      JOINT Chest3
      {
        OFFSET 0 9.9351 -2.2114
        CHANNELS 6 Xposition Yposition Zposition Zrotation Xrotation Yrotation
        JOINT Neck
        {
          OFFSET 0 22.3885 -0.4656
          CHANNELS 6 Xposition Yposition Zposition Zrotation Xrotation Yrotation
          JOINT Head
          {
            OFFSET -0.0001 12.643 3.4389
            CHANNELS 6 Xposition Yposition Zposition Zrotation Xrotation Yrotation
            End Site
            {
              OFFSET 0.0001 17.6655 0.5274
            }
          }
        }
        JOINT LeftCollar
        {
          OFFSET 2.2603 21.606 7.4023
          CHANNELS 6 Xposition Yposition Zposition Zrotation Xrotation Yrotation
          JOINT LeftShoulder
          {
            OFFSET 13.5163 -1.1332 -5.0146
            CHANNELS 6 Xposition Yposition Zposition Zrotation Xrotation Yrotation
            JOINT LeftElbow
            {
              OFFSET -0.0995 -28.05 -0.2431
              CHANNELS 6 Xposition Yposition Zposition Zrotation Xrotation Yrotation
              JOINT LeftWrist
              {
                OFFSET 0.0679 -23.3996 -0.1402
                CHANNELS 6 Xposition Yposition Zposition Zrotation Xrotation Yrotation
                JOINT LeftFinger1
                {
                  OFFSET 0.7932 -9.069 2.5189
                  CHANNELS 6 Xposition Yposition Zposition Zrotation Xrotation Yrotation
                  JOINT LeftFinger11
                  {
                    OFFSET -0.8272 -3.3923 0.5977
                    CHANNELS 6 Xposition Yposition Zposition Zrotation Xrotation Yrotation
                    JOINT LeftFinger12
                    {
                      OFFSET -0.5649 -2.3158 0.4082
                      CHANNELS 6 Xposition Yposition Zposition Zrotation Xrotation Yrotation
                      End Site
                      {
                        OFFSET -0.4919 -1.6479 0.2673
                      }
                    }
                  }
                }
                JOINT LeftFinger2
                {
                  OFFSET 0.9159 -9.2044 0.2193
                  CHANNELS 6 Xposition Yposition Zposition Zrotation Xrotation Yrotation
                  JOINT LeftFinger21
                  {
                    OFFSET 0.0117 -4.1944 -0.0248
                    CHANNELS 6 Xposition Yposition Zposition Zrotation Xrotation Yrotation
                    JOINT LeftFinger22
                    {
                      OFFSET 0.0071 -2.3249 -0.0142
                      CHANNELS 6 Xposition Yposition Zposition Zrotation Xrotation Yrotation
                      End Site
                      {
                        OFFSET -0.1475 -2.0882 0.0028
                      }
                    }
                  }
                }
                JOINT LeftFinger3
                {
                  OFFSET 0.6113 -8.7231 -2.0637
                  CHANNELS 6 Xposition Yposition Zposition Zrotation Xrotation Yrotation
                  JOINT LeftFinger31
                  {
                    OFFSET -0.1927 -3.8059 -0.2383
                    CHANNELS 6 Xposition Yposition Zposition Zrotation Xrotation Yrotation
                    JOINT LeftFinger32
                    {
                      OFFSET -0.1091 -2.1688 -0.1362
                      CHANNELS 6 Xposition Yposition Zposition Zrotation Xrotation Yrotation
                      End Site
                      {
                        OFFSET -0.2358 -1.9176 -0.0906
                      }
                    }
                  }
                }
                JOINT LeftFinger4
                {
                  OFFSET -0.6151 -8.0947 -3.5641
                  CHANNELS 6 Xposition Yposition Zposition Zrotation Xrotation Yrotation
                  JOINT LeftFinger41
                  {
                    OFFSET -0.4882 -2.341 -0.6462
                    CHANNELS 6 Xposition Yposition Zposition Zrotation Xrotation Yrotation
                    JOINT LeftFinger42
                    {
                      OFFSET -0.3575 -1.7167 -0.4742
                      CHANNELS 6 Xposition Yposition Zposition Zrotation Xrotation Yrotation
                      End Site
                      {
                        OFFSET -0.4187 -1.5237 -0.3496
                      }
                    }
                  }
                }
                JOINT LeftFinger0
                {
                  OFFSET -1.42 -1.8761 1.4223
                  CHANNELS 6 Xposition Yposition Zposition Zrotation Xrotation Yrotation
                  JOINT LeftFinger01
                  {
                    OFFSET -1.1471 -3.4929 2.6334
                    CHANNELS 6 Xposition Yposition Zposition Zrotation Xrotation Yrotation
                    JOINT LeftFinger02
                    {
                      OFFSET -0.823 -2.3 1.6571
                      CHANNELS 6 Xposition Yposition Zposition Zrotation Xrotation Yrotation
                      End Site
                      {
                        OFFSET -0.5822 -1.6914 1.1582
                      }
                    }
                  }
                }
              }
            }
          }
        }
        JOINT RightCollar
        {
          OFFSET -2.2603 21.606 7.4023
          CHANNELS 6 Xposition Yposition Zposition Zrotation Xrotation Yrotation
          JOINT RightShoulder
          {
            OFFSET -13.5187 -1.1334 -5.0155
            CHANNELS 6 Xposition Yposition Zposition Zrotation Xrotation Yrotation
            JOINT RightElbow
            {
              OFFSET 0.0994 -28.0499 -0.2431
              CHANNELS 6 Xposition Yposition Zposition Zrotation Xrotation Yrotation
              JOINT RightWrist
              {
                OFFSET -0.0679 -23.3996 -0.1402
                CHANNELS 6 Xposition Yposition Zposition Zrotation Xrotation Yrotation
                JOINT RightFinger1
                {
                  OFFSET -0.7932 -9.0691 2.5189
                  CHANNELS 6 Xposition Yposition Zposition Zrotation Xrotation Yrotation
                  JOINT RightFinger11
                  {
                    OFFSET 0.8272 -3.3923 0.5977
                    CHANNELS 6 Xposition Yposition Zposition Zrotation Xrotation Yrotation
                    JOINT RightFinger12
                    {
                      OFFSET 0.565 -2.3158 0.4082
                      CHANNELS 6 Xposition Yposition Zposition Zrotation Xrotation Yrotation
                      End Site
                      {
                        OFFSET 0.4919 -1.6479 0.2673
                      }
                    }
                  }
                }
                JOINT RightFinger2
                {
                  OFFSET -0.916 -9.2044 0.2193
                  CHANNELS 6 Xposition Yposition Zposition Zrotation Xrotation Yrotation
                  JOINT RightFinger21
                  {
                    OFFSET -0.0117 -4.1944 -0.0248
                    CHANNELS 6 Xposition Yposition Zposition Zrotation Xrotation Yrotation
                    JOINT RightFinger22
                    {
                      OFFSET -0.0071 -2.3249 -0.0142
                      CHANNELS 6 Xposition Yposition Zposition Zrotation Xrotation Yrotation
                      End Site
                      {
                        OFFSET 0.1475 -2.0882 0.0028
                      }
                    }
                  }
                }
                JOINT RightFinger3
                {
                  OFFSET -0.6113 -8.7231 -2.0637
                  CHANNELS 6 Xposition Yposition Zposition Zrotation Xrotation Yrotation
                  JOINT RightFinger31
                  {
                    OFFSET 0.1927 -3.8059 -0.2383
                    CHANNELS 6 Xposition Yposition Zposition Zrotation Xrotation Yrotation
                    JOINT RightFinger32
                    {
                      OFFSET 0.1091 -2.1688 -0.1362
                      CHANNELS 6 Xposition Yposition Zposition Zrotation Xrotation Yrotation
                      End Site
                      {
                        OFFSET 0.2358 -1.9176 -0.0906
                      }
                    }
                  }
                }
                JOINT RightFinger4
                {
                  OFFSET 0.6151 -8.0947 -3.564
                  CHANNELS 6 Xposition Yposition Zposition Zrotation Xrotation Yrotation
                  JOINT RightFinger41
                  {
                    OFFSET 0.4882 -2.341 -0.6462
                    CHANNELS 6 Xposition Yposition Zposition Zrotation Xrotation Yrotation
                    JOINT RightFinger42
                    {
                      OFFSET 0.3574 -1.7166 -0.4742
                      CHANNELS 6 Xposition Yposition Zposition Zrotation Xrotation Yrotation
                      End Site
                      {
                        OFFSET 0.4187 -1.5237 -0.3496
                      }
                    }
                  }
                }
                JOINT RightFinger0
                {
                  OFFSET 1.4199 -1.8761 1.4221
                  CHANNELS 6 Xposition Yposition Zposition Zrotation Xrotation Yrotation
                  JOINT RightFinger01
                  {
                    OFFSET 1.1472 -3.4929 2.6336
                    CHANNELS 6 Xposition Yposition Zposition Zrotation Xrotation Yrotation
                    JOINT RightFinger02
                    {
                      OFFSET 0.8229 -2.3 1.6571
                      CHANNELS 6 Xposition Yposition Zposition Zrotation Xrotation Yrotation
                      End Site
                      {
                        OFFSET 0.5822 -1.6914 1.1582
                      }
                    }
                  }
                }
              }
            }
          }
        }
      }
    }
  }
  JOINT RightHip
  {
    OFFSET -9.412 3.9771 -0.7758
    CHANNELS 6 Xposition Yposition Zposition Zrotation Xrotation Yrotation
    JOINT RightKnee
    {
      OFFSET -0.7531 -40.938 0
      CHANNELS 6 Xposition Yposition Zposition Zrotation Xrotation Yrotation
      JOINT RightAnkle
      {
        OFFSET 0 -40.1986 0
        CHANNELS 6 Xposition Yposition Zposition Zrotation Xrotation Yrotation
        JOINT RightToe
        {
          OFFSET 0 -4.4182 9.239
          CHANNELS 6 Xposition Yposition Zposition Zrotation Xrotation Yrotation
          End Site
          {
            OFFSET 0 0 6.1981
          }
        }
      }
    }
  }
  JOINT LeftHip
  {
    OFFSET 9.4119 3.9773 -0.7758
    CHANNELS 6 Xposition Yposition Zposition Zrotation Xrotation Yrotation
    JOINT LeftKnee
    {
      OFFSET 0.7532 -40.9383 0
      CHANNELS 6 Xposition Yposition Zposition Zrotation Xrotation Yrotation
      JOINT LeftAnkle
      {
        OFFSET 0 -40.1986 0
        CHANNELS 6 Xposition Yposition Zposition Zrotation Xrotation Yrotation
        JOINT LeftToe
        {
          OFFSET 0 -4.4182 9.239
          CHANNELS 6 Xposition Yposition Zposition Zrotation Xrotation Yrotation
          End Site
          {
            OFFSET 0 0 6.1981
          }
        }
      }
    }
  }
}
MOTION
Frames:	4
Frame Time:	0.0333333
-0.00121097 24.264 40.7206 -0.0268159 -74.9991 179.979 0 8.7983 -4.7612 -0.707199 4.42291 -0.581686 -5.55111e-017 8.0291 0.4195 -1.37535 8.85244 -1.11339 0 9.9351 -2.2114 -1.37536 8.85248 -1.11339 1.11022e-016 22.3885 -0.4656 2.72745e-006 -5.71785 2.46451e-006 -0.0001 12.643 3.4389 -1.14331e-006 9.48698 4.07588e-007 2.2603 21.606 7.4023 -7.39189 2.92991 17.6249 13.5163 -1.1332 -5.0146 118.252 -46.7493 32.7409 -0.0995 -28.05 -0.2431 115.833 -43.4198 142.967 0.0679 -23.3996 -0.1402 26.0797 -6.24791 -34.637 0.7932 -9.069 2.5189 3.18055e-015 3.18055e-015 -7.15625e-015 -0.8272 -3.3923 0.5977 -0 0 1.19271e-015 -0.5649 -2.3158 0.4082 1.10348e-032 -1.59028e-015 3.97569e-016 0.9159 -9.2044 0.2193 3.18055e-015 3.18055e-015 -7.15625e-015 0.0117 -4.1944 -0.0248 -0.0128414 0.00232722 8.59545e-005 0.0071 -2.3249 -0.0142 -0 0 9.93923e-015 0.6113 -8.7231 -2.0637 3.18055e-015 3.18055e-015 -7.15625e-015 -0.1927 -3.8059 -0.2383 -0.0160457 0.0029972 0.000852722 -0.1091 -2.1688 -0.1362 4.77083e-015 -4.77083e-015 -2.78299e-015 -0.6151 -8.0947 -3.5641 3.18055e-015 3.18055e-015 -7.15625e-015 -0.4882 -2.341 -0.6462 -0.0126198 0.00312726 0.00283352 -0.3575 -1.7167 -0.4742 -4.7279e-006 3.2344e-007 -1.29215e-006 -1.42 -1.8761 1.4223 3.18055e-015 3.18055e-015 -7.15625e-015 -1.1471 -3.4929 2.6334 -0 0 1.19271e-015 -0.823 -2.3 1.6571 1.10348e-032 -1.59028e-015 3.97569e-016 -2.2603 21.606 7.4023 13.2915 1.30066 -21.5245 -13.5187 -1.1334 -5.0155 -112.347 -49.362 -30.2679 0.0994 -28.0499 -0.2431 -123.375 -43.6263 -148.306 -0.0679 -23.3996 -0.1402 -26.7107 -7.29729 34.0925 -0.7932 -9.0691 2.5189 3.449e-006 -1.50167e-006 -2.68328e-006 0.8272 -3.3923 0.5977 5.71942e-007 -6.54423e-007 -3.09497e-006 0.565 -2.3158 0.4082 -5.71942e-007 6.54422e-007 3.09497e-006 -0.916 -9.2044 0.2193 3.449e-006 -1.50167e-006 -2.68328e-006 -0.0117 -4.1944 -0.0248 0.01297 0.00232795 -9.46639e-005 -0.0071 -2.3249 -0.0142 8.43518e-007 1.18675e-006 4.6428e-006 -0.6113 -8.7231 -2.0637 3.449e-006 -1.50167e-006 -2.68328e-006 0.1927 -3.8059 -0.2383 0.0163261 0.00303295 -0.000866046 0.1091 -2.1688 -0.1362 5.34318e-006 -4.66572e-006 4.67619e-006 0.6151 -8.0947 -3.564 3.449e-006 -1.50167e-006 -2.68328e-006 0.4882 -2.341 -0.6462 0.0145848 0.00368288 -0.00326932 0.3574 -1.7166 -0.4742 1.04996e-006 -3.04656e-006 2.71644e-006 1.4199 -1.8761 1.4221 3.449e-006 -1.50167e-006 -2.68328e-006 1.1472 -3.4929 2.6336 5.71942e-007 -6.54423e-007 -3.09497e-006 0.8229 -2.3 1.6571 -5.71942e-007 6.54422e-007 3.09497e-006 -9.412 3.9771 -0.7758 -93.3696 -65.3953 -107.21 -0.7531 -40.938 -3.55271e-015 -172.617 61.4027 171.496 0 -40.1986 0 -12.2868 42.2266 3.90754 0 -4.4182 9.239 -7.41852e-007 6.93655e-006 -1.03178e-006 9.4119 3.9773 -0.7758 93.1151 -65.5299 106.852 0.7532 -40.9383 -7.10543e-015 172.701 61.5823 -171.545 3.55271e-015 -40.1986 0 12.1012 41.6858 -3.85181 0 -4.4182 9.239 -2.83032e-007 6.41441e-006 2.38382e-006 
-0.00121097 24.264 40.816 -0.0268159 -74.9991 179.979 0 8.7983 -4.7612 -0.703094 4.39969 -0.575114 0 8.0291 0.4195 -1.36779 8.80592 -1.10075 0 9.9351 -2.2114 -1.3678 8.80596 -1.10075 1.11022e-016 22.3885 -0.4656 -1.137e-005 -5.52832 -8.18693e-006 -0.0001 12.643 3.4389 -4.6205e-007 8.47598 2.05091e-007 2.2603 21.606 7.4023 -7.20867 2.95263 17.4264 13.5163 -1.1332 -5.0146 118.262 -46.5619 32.7841 -0.0995 -28.05 -0.2431 115.585 -43.3722 142.807 0.0679 -23.3996 -0.1402 26.0465 -6.15092 -34.6044 0.7932 -9.069 2.5189 1.59028e-015 -1.59028e-015 -8.34896e-015 -0.8272 -3.3923 0.5977 3.18055e-015 0 1.59028e-015 -0.5649 -2.3158 0.4082 1.59028e-015 -3.18055e-015 4.77083e-015 0.9159 -9.2044 0.2193 1.59028e-015 -1.59028e-015 -8.34896e-015 0.0117 -4.1944 -0.0248 -0.0128037 0.00232823 8.93977e-005 0.0071 -2.3249 -0.0142 -3.18055e-015 4.77083e-015 3.97569e-016 0.6113 -8.7231 -2.0637 1.59028e-015 -1.59028e-015 -8.34896e-015 -0.1927 -3.8059 -0.2383 -0.0160182 0.00298431 0.000851012 -0.1091 -2.1688 -0.1362 -1.59028e-015 -1.59028e-015 7.15625e-015 -0.6151 -8.0947 -3.5641 1.59028e-015 -1.59028e-015 -8.34896e-015 -0.4882 -2.341 -0.6462 -0.012527 0.00311848 0.00281748 -0.3575 -1.7167 -0.4742 1.59028e-015 0 3.97569e-016 -1.42 -1.8761 1.4223 1.59028e-015 -1.59028e-015 -8.34896e-015 -1.1471 -3.4929 2.6334 3.18055e-015 0 1.59028e-015 -0.823 -2.3 1.6571 1.59028e-015 -3.18055e-015 4.77083e-015 -2.2603 21.606 7.4023 13.124 1.28925 -21.3199 -13.5187 -1.1334 -5.0155 -112.369 -49.1764 -30.3192 0.0994 -28.0499 -0.2431 -123.142 -43.5986 -148.157 -0.0679 -23.3996 -0.1402 -26.676 -7.18424 34.0568 -0.7932 -9.0691 2.5189 -3.18055e-015 1.59028e-015 -0 0.8272 -3.3923 0.5977 1.59028e-015 -6.36111e-015 -3.97569e-016 0.565 -2.3158 0.4082 4.77083e-015 1.59028e-015 4.77083e-015 -0.916 -9.2044 0.2193 -3.18055e-015 1.59028e-015 -0 -0.0117 -4.1944 -0.0248 0.0129436 0.00232173 -7.46378e-005 -0.0071 -2.3249 -0.0142 1.59028e-015 4.77083e-015 7.55382e-015 -0.6113 -8.7231 -2.0637 -3.18055e-015 1.59028e-015 -0 0.1927 -3.8059 -0.2383 0.0163392 0.00304583 -0.000860065 0.1091 -2.1688 -0.1362 4.77083e-015 1.59028e-015 5.1684e-015 0.6151 -8.0947 -3.564 -3.18055e-015 1.59028e-015 -0 0.4882 -2.341 -0.6462 0.0146044 0.00368411 -0.0032509 0.3574 -1.7166 -0.4742 1.59028e-015 -1.59028e-015 7.15625e-015 1.4199 -1.8761 1.4221 -3.18055e-015 1.59028e-015 -0 1.1472 -3.4929 2.6336 1.59028e-015 -6.36111e-015 -3.97569e-016 0.8229 -2.3 1.6571 4.77083e-015 1.59028e-015 4.77083e-015 -9.412 3.9771 -0.7758 -93.3696 -65.3954 -107.21 -0.7531 -40.938 -7.10543e-015 -172.617 61.4027 171.496 -3.55271e-015 -40.1986 0 -12.2868 42.2266 3.90756 0 -4.4182 9.239 3.82997e-006 -8.10162e-006 -2.90634e-007 9.4119 3.9773 -0.7758 93.1151 -65.5299 106.852 0.7532 -40.9383 0 172.701 61.5824 -171.545 3.55271e-015 -40.1986 0 12.1012 41.6859 -3.85182 0 -4.4182 9.239 2.50774e-007 2.80241e-006 3.4138e-007 
-0.00121095 24.264 40.9113 -0.0268159 -74.9991 179.979 -4.33681e-019 8.7983 -4.7612 -0.69893 4.37648 -0.568577 0 8.0291 0.4195 -1.36011 8.7594 -1.08818 2.22045e-016 9.9351 -2.2114 -1.36011 8.7594 -1.08818 -3.33067e-016 22.3885 -0.4656 -2.05881e-005 -5.33877 -1.52003e-005 -0.0001 12.643 3.4389 4.92555e-007 7.46315 -4.18866e-007 2.2603 21.606 7.4023 -7.02533 2.97469 17.2278 13.5163 -1.1332 -5.0146 118.273 -46.3744 32.827 -0.0995 -28.05 -0.2431 115.339 -43.3241 142.647 0.0679 -23.3996 -0.1402 26.0132 -6.05401 -34.5718 0.7932 -9.069 2.5189 -4.11411e-006 -2.41462e-006 -4.07528e-006 -0.8272 -3.3923 0.5977 -8.82781e-032 1.59028e-015 3.18055e-015 -0.5649 -2.3158 0.4082 4.11411e-006 2.41462e-006 4.07528e-006 0.9159 -9.2044 0.2193 -4.11411e-006 -2.41462e-006 -4.07528e-006 0.0117 -4.1944 -0.0248 -0.0128365 0.00233644 9.2327e-005 0.0071 -2.3249 -0.0142 -3.18055e-015 4.77083e-015 -1.07344e-014 0.6113 -8.7231 -2.0637 -4.11411e-006 -2.41462e-006 -4.07528e-006 -0.1927 -3.8059 -0.2383 -0.0160263 0.00300009 0.000859659 -0.1091 -2.1688 -0.1362 -1.59028e-015 1.59028e-015 5.56597e-015 -0.6151 -8.0947 -3.5641 -4.11411e-006 -2.41462e-006 -4.07528e-006 -0.4882 -2.341 -0.6462 -0.0126099 0.0031392 0.00284027 -0.3575 -1.7167 -0.4742 -1.59028e-015 -1.59028e-015 2.38542e-015 -1.42 -1.8761 1.4223 -4.11411e-006 -2.41462e-006 -4.07528e-006 -1.1471 -3.4929 2.6334 -8.82781e-032 1.59028e-015 3.18055e-015 -0.823 -2.3 1.6571 4.11411e-006 2.41462e-006 4.07528e-006 -2.2603 21.606 7.4023 12.9565 1.27722 -21.1154 -13.5187 -1.1334 -5.0155 -112.39 -48.9907 -30.3703 0.0994 -28.0499 -0.2431 -122.909 -43.5705 -148.008 -0.0679 -23.3996 -0.1402 -26.6414 -7.07114 34.0211 -0.7932 -9.0691 2.5189 -5.53506e-006 6.16616e-006 -2.73603e-006 0.8272 -3.3923 0.5977 1.59028e-015 -3.18055e-015 3.97569e-016 0.565 -2.3158 0.4082 -2.38621e-006 1.776e-006 5.4052e-006 -0.916 -9.2044 0.2193 -5.53506e-006 6.16616e-006 -2.73603e-006 -0.0117 -4.1944 -0.0248 0.0129512 0.00230353 -8.45395e-005 -0.0071 -2.3249 -0.0142 2.67191e-006 2.51255e-006 2.33178e-006 -0.6113 -8.7231 -2.0637 -5.53506e-006 6.16616e-006 -2.73603e-006 0.1927 -3.8059 -0.2383 0.016323 0.00302175 -0.000873481 0.1091 -2.1688 -0.1362 1.72055e-006 1.05465e-005 6.59593e-006 0.6151 -8.0947 -3.564 -5.53506e-006 6.16616e-006 -2.73603e-006 0.4882 -2.341 -0.6462 0.0145669 0.00366514 -0.00325314 0.3574 -1.7166 -0.4742 -3.05147e-006 5.46963e-007 -1.16359e-006 1.4199 -1.8761 1.4221 -5.53506e-006 6.16616e-006 -2.73603e-006 1.1472 -3.4929 2.6336 1.59028e-015 -3.18055e-015 3.97569e-016 0.8229 -2.3 1.6571 -2.38621e-006 1.776e-006 5.4052e-006 -9.412 3.9771 -0.7758 -93.3696 -65.3953 -107.21 -0.7531 -40.938 -3.55271e-015 -172.617 61.4027 171.496 3.55271e-015 -40.1986 -7.10543e-015 -12.2868 42.2266 3.90756 0 -4.4182 9.239 -7.95139e-016 -6.36111e-015 4.77083e-015 9.4119 3.9773 -0.7758 93.1151 -65.5299 106.852 0.7532 -40.9383 0 172.701 61.5824 -171.545 7.10543e-015 -40.1986 3.55271e-015 12.1012 41.6859 -3.85181 0 -4.4182 9.239 -1.0031e-006 9.59296e-006 -1.36552e-006 
-0.00121092 24.264 41.0066 -0.0268159 -74.9991 179.979 0 8.7983 -4.7612 -0.694711 4.35326 -0.562078 -5.55112e-017 8.0291 0.4195 -1.35231 8.71284 -1.07569 -3.33067e-016 9.9351 -2.2114 -1.35231 8.71286 -1.07569 6.66134e-016 22.3885 -0.4656 -1.68554e-006 -5.1494 -1.04854e-006 -0.0001 12.643 3.4389 1.21636e-007 6.44861 -8.57522e-007 2.2603 21.606 7.4023 -6.84188 2.99598 17.0291 13.5163 -1.1332 -5.0146 118.283 -46.1869 32.8699 -0.0995 -28.05 -0.2431 115.092 -43.2755 142.487 0.0679 -23.3996 -0.1402 25.9799 -5.95705 -34.5391 0.7932 -9.069 2.5189 -1.59028e-015 -6.36111e-015 3.18055e-015 -0.8272 -3.3923 0.5977 3.18055e-015 -4.77083e-015 7.95139e-016 -0.5649 -2.3158 0.4082 1.59028e-015 -4.77083e-015 1.19271e-015 0.9159 -9.2044 0.2193 -1.59028e-015 -6.36111e-015 3.18055e-015 0.0117 -4.1944 -0.0248 -0.0128084 0.00232526 7.77234e-005 0.0071 -2.3249 -0.0142 -1.59028e-015 1.59028e-015 3.97569e-016 0.6113 -8.7231 -2.0637 -1.59028e-015 -6.36111e-015 3.18055e-015 -0.1927 -3.8059 -0.2383 -0.0160542 0.00298745 0.00085774 -0.1091 -2.1688 -0.1362 4.77083e-015 0 3.18055e-015 -0.6151 -8.0947 -3.5641 -1.59028e-015 -6.36111e-015 3.18055e-015 -0.4882 -2.341 -0.6462 -0.0125633 0.0031074 0.00283044 -0.3575 -1.7167 -0.4742 1.59028e-015 -1.59028e-015 1.15295e-014 -1.42 -1.8761 1.4223 -1.59028e-015 -6.36111e-015 3.18055e-015 -1.1471 -3.4929 2.6334 3.18055e-015 -4.77083e-015 7.95139e-016 -0.823 -2.3 1.6571 1.59028e-015 -4.77083e-015 1.19271e-015 -2.2603 21.606 7.4023 12.789 1.26447 -20.9109 -13.5187 -1.1334 -5.0155 -112.41 -48.8049 -30.4211 0.0994 -28.0499 -0.2431 -122.676 -43.5419 -147.859 -0.0679 -23.3996 -0.1402 -26.6066 -6.95809 33.9852 -0.7932 -9.0691 2.5189 -8.60712e-031 4.77083e-015 1.03368e-014 0.8272 -3.3923 0.5977 1.72986e-006 -9.78339e-006 9.28042e-006 0.565 -2.3158 0.4082 -2.67181e-006 1.18407e-006 -2.32853e-006 -0.916 -9.2044 0.2193 -8.60712e-031 4.77083e-015 1.03368e-014 -0.0117 -4.1944 -0.0248 0.0129469 0.00229714 -7.43679e-005 -0.0071 -2.3249 -0.0142 3.70598e-007 3.26254e-006 -3.85566e-006 -0.6113 -8.7231 -2.0637 -8.60712e-031 4.77083e-015 1.03368e-014 0.1927 -3.8059 -0.2383 0.0163474 0.00303808 -0.000868188 0.1091 -2.1688 -0.1362 3.18055e-015 -1.59028e-015 7.15625e-015 0.6151 -8.0947 -3.564 -8.60712e-031 4.77083e-015 1.03368e-014 0.4882 -2.341 -0.6462 0.0146036 0.00366885 -0.00325319 0.3574 -1.7166 -0.4742 -4.77083e-015 0 -3.57812e-015 1.4199 -1.8761 1.4221 -8.60712e-031 4.77083e-015 1.03368e-014 1.1472 -3.4929 2.6336 1.72986e-006 -9.78339e-006 9.28042e-006 0.8229 -2.3 1.6571 -2.67181e-006 1.18407e-006 -2.32853e-006 -9.412 3.9771 -0.7758 -93.3696 -65.3953 -107.21 -0.7531 -40.938 -3.55271e-015 -172.617 61.4027 171.496 3.55271e-015 -40.1986 -3.55271e-015 -12.2868 42.2266 3.90754 0 -4.4182 9.239 3.08811e-006 -8.06701e-006 -1.32242e-006 9.4119 3.9773 -0.7758 93.1151 -65.5299 106.852 0.7532 -40.9383 -3.55271e-015 172.701 61.5824 -171.545 3.55271e-015 -40.1986 -3.55271e-015 12.1012 41.6859 -3.85184 3.55271e-015 -4.4182 9.239 -2.29685e-006 3.43948e-006 1.2561e-006 
